<svg xmlns="http://www.w3.org/2000/svg" version="1.1" viewBox="-5.0 -10.0 110.0 135.0">
 <path d="m74.586 21.551c-0.58594-0.375-1.2461-0.625-1.9336-0.71875-1.8828-0.25781-3.9375 0.69922-4.8945 2.3477l-7 12.031c-2.125-0.875-4.375-1.125-6.5625-0.625-5.9062 1.3438-13.438 3.875-16.344 8.3125-0.71875 0.5-4.9062 3.2812-11.031 4.75-2.3125 0.53125-3.875 2.75-3.5938 5.125 1.1875 10.812 8.9375 17.688 13.438 20.812 4.9688 3.4375 10.594 5.625 14.25 5.625 0.625 0 1.1562-0.0625 1.6562-0.1875 17.344-4.375 20.969-14.625 21.125-15.094 2.5-4.6875 1-12.594-0.78125-18.438-0.625-2.125-2-4.0312-3.8125-5.4375 0 0 6.9922-11.988 7-12 0.875-1.4961 0.96094-3.2969 0.082032-4.8359-0.38281-0.67578-0.94141-1.2461-1.5977-1.668zm-48.262 30.879c-0.09375-0.8125 0.4375-1.5625 1.2188-1.75 5.625-1.3438 9.7188-3.6875 11.438-4.7812l4.2188 2.4375 0.90625 0.5625c-3.125 2.8125-8.4062 6.0312-16.875 7.6562-0.40625-1.3125-0.75-2.6562-0.90625-4.125zm2.0625 7.0938c9.4688-1.9688 15.219-5.7812 18.531-9l5.6562 3.2812c-2.625 3.2188-8.7188 8.5-21.406 10.344-1.0312-1.375-2-2.9375-2.7812-4.625zm5.2188 7.4062c12.812-2.3438 19.031-8.125 21.688-11.531l6.2188 3.625c-2.2188 3.3438-8.4062 10.094-22.656 12.281-1.0898-0.50391-3.5312-2.625-5.25-4.375zm36.594-2.8438c-1.4062 2.5938-5.9688 8.7812-18.375 11.906-1.4062 0.34375-4.8438-0.34375-8.8438-2.3125 13.031-2.9062 18.969-9.6562 21.219-13.062z"/>
<text x="0.0" y="117.5" font-size="5.0" font-weight="bold" font-family="Arbeit Regular, Helvetica, Arial-Unicode, Arial, Sans-serif" fill="#000000">Created by Jatu Kumala</text><text x="0.0" y="122.5" font-size="5.0" font-weight="bold" font-family="Arbeit Regular, Helvetica, Arial-Unicode, Arial, Sans-serif" fill="#000000">from Noun Project</text></svg>