<svg xmlns="http://www.w3.org/2000/svg" version="1.1" viewBox="-5.0 -10.0 110.0 135.0">
 <path d="m41.031 64.156c-0.85156-0.85156-0.85156-2.2422 0-3.0938l10.133-10.133-10.133-10.133c-0.85156-0.85156-0.85156-2.2422 0-3.0938l2.4297-2.4297c0.85156-0.85156 2.2422-0.85156 3.0938 0l10.133 10.133 10.133-10.133c0.85156-0.85156 2.2422-0.85156 3.0938 0l2.4297 2.4297c0.85156 0.85156 0.85156 2.2422 0 3.0938l-10.133 10.133 10.133 10.133c0.85156 0.85156 0.85156 2.2422 0 3.0938l-2.4297 2.4297c-0.85156 0.85156-2.2422 0.85156-3.0938 0l-10.133-10.133-10.133 10.133c-0.85156 0.85156-2.2422 0.85156-3.0938 0z"/>
 <path d="m22.688 25.414c3.5312-5.0781 9.3281-8.1016 15.516-8.1016h33.492c10.438 0 18.906 8.4609 18.906 18.906v29.469c0 10.445-8.4609 18.906-18.906 18.906h-33.492c-6.1875 0-11.984-3.0234-15.516-8.1016l-14.484-20.805c-1.9766-2.8438-1.9766-6.6172 0-9.4609l14.484-20.805zm15.516-0.28906c-3.6328 0-7.0312 1.7734-9.1016 4.7578l-14.484 20.805c-0.10938 0.16406-0.10938 0.375 0 0.53906l14.484 20.805c2.0703 2.9766 5.4766 4.7578 9.1016 4.7578h33.492c6.125 0 11.094-4.9688 11.094-11.094v-29.469c0-6.125-4.9688-11.094-11.094-11.094h-33.492z" fill-rule="evenodd"/>
<text x="0.0" y="117.5" font-size="5.0" font-weight="bold" font-family="Arbeit Regular, Helvetica, Arial-Unicode, Arial, Sans-serif" fill="#000000">Created by LAFS</text><text x="0.0" y="122.5" font-size="5.0" font-weight="bold" font-family="Arbeit Regular, Helvetica, Arial-Unicode, Arial, Sans-serif" fill="#000000">from Noun Project</text></svg>