<?xml version="1.0" encoding="UTF-8"?>
<svg id="Layer_1" xmlns="http://www.w3.org/2000/svg" version="1.1" viewBox="0 0 963.57 484.09">
  <!-- Generator: Adobe Illustrator 29.1.0, SVG Export Plug-In . SVG Version: 2.1.0 Build 142)  -->
  <path d="M76.55,408.54c-91.62-91.62-91.62-240.6,0-332.21,91.62-91.62,240.6-91.62,332.21,0s91.62,240.6,0,332.21c-91.62,91.62-240.6,91.62-332.21,0ZM390.92,94.18c-81.71-81.71-214.81-81.72-296.53,0-81.72,81.72-81.72,214.81,0,296.53,81.72,81.72,214.81,81.72,296.53,0,81.72-81.72,81.72-214.81,0-296.53Z"/>
  <path d="M732.95,319.33c-50.4-50.4-50.31-132.38,0-182.7,50.31-50.31,132.39-50.49,182.79-.09,50.4,50.4,50.4,132.3,0,182.7-50.4,50.4-132.38,50.31-182.7,0l-.09.09ZM897.9,154.39c-40.59-40.59-106.51-40.5-147.01,0-40.5,40.5-40.5,106.51,0,147.01,40.5,40.5,106.51,40.5,147.01,0s40.5-106.51,0-147.01Z"/>
  <path d="M778.09,274.2c-25.51-25.51-25.51-67.08,0-92.6,25.51-25.51,67-25.42,92.51.09,25.51,25.51,25.51,67.08.09,92.51-25.42,25.42-67.08,25.51-92.6,0ZM852.75,199.53c-15.7-15.7-41.21-15.7-56.83-.09-15.61,15.61-15.7,41.21,0,56.91,15.7,15.7,41.21,15.7,56.91,0,15.7-15.7,15.61-41.13-.09-56.83Z"/>
  <path d="M144.98,376.88l-36.75-36.75c-4.64-4.64-5-11.95-.89-16.95l26.23-31.76-2.68-6.42-41.04-3.93c-6.51-.62-11.42-6.07-11.42-12.49l-.09-52.01c0-6.6,5-11.95,11.51-12.58l41.04-3.93c.89-2.14,1.69-4.37,2.68-6.42l-26.32-31.85c-4.1-5-3.75-12.31.89-16.95l36.75-36.75c4.64-4.64,11.95-5,16.95-.89l31.76,26.23c2.14-.89,4.28-1.78,6.42-2.68l3.93-41.04c.62-6.51,6.07-11.42,12.49-11.42h52.1c6.51.09,11.95,5,12.49,11.42l3.93,41.04c2.14.89,4.19,1.69,6.42,2.68l31.85-26.32c5-4.1,12.31-3.75,16.95.89l36.75,36.75c4.64,4.64,5,11.95.89,16.95l-26.32,31.85,2.68,6.42,41.04,3.93c6.51.62,11.42,6.07,11.42,12.49v52.1c0,6.42-5,11.95-11.42,12.49l-41.04,3.93c-.8,2.23-1.69,4.37-2.68,6.42l26.32,31.85c4.1,5,3.75,12.31-.89,16.95l-36.75,36.75c-4.55,4.55-11.95,5-16.95.89l-31.85-26.32c-2.14.89-4.28,1.78-6.42,2.68l-3.93,41.04c-.62,6.51-6.07,11.42-12.58,11.51l-52.01-.09c-6.51-.09-11.95-5-12.49-11.42l-3.93-41.04c-2.23-.8-4.37-1.69-6.42-2.68l-31.76,26.23c-5,4.1-12.31,3.75-16.95-.89l.09.09ZM134.18,330.4l20.52,20.52,29.26-24.09c3.93-3.21,9.46-3.75,14.01-1.34,5.71,3.03,11.6,5.53,17.57,7.23,5,1.43,8.56,5.71,9.1,10.88l3.57,37.82h29.08s3.57-37.82,3.57-37.82c.54-5.17,4.1-9.46,9.01-10.97,5.89-1.78,11.78-4.1,17.48-7.14,4.55-2.41,10.08-1.87,14.01,1.34l29.35,24.18,20.52-20.52-24.18-29.35c-3.21-3.93-3.75-9.46-1.34-14.01,3.03-5.71,5.53-11.6,7.14-17.48,1.43-5,5.71-8.56,10.97-9.01l37.82-3.57v-29.08l-37.82-3.57c-5.17-.54-9.46-4.1-10.97-9.01-1.78-5.89-4.1-11.78-7.23-17.57-2.41-4.55-1.87-10.08,1.34-14.01l24.18-29.35-20.52-20.52-29.35,24.18c-3.93,3.21-9.46,3.75-14.01,1.34-5.71-3.03-11.6-5.53-17.57-7.23-5-1.43-8.56-5.71-9.01-10.97l-3.57-37.82h-29.08s-3.57,37.82-3.57,37.82c-.54,5.17-4.1,9.46-9.01,10.97-5.89,1.78-11.78,4.1-17.57,7.23-4.55,2.41-10.08,1.87-14.01-1.34l-29.26-24.09-20.52,20.52,24.09,29.26c3.21,3.93,3.75,9.46,1.34,14.01-3.03,5.71-5.53,11.6-7.23,17.57-1.43,5-5.8,8.47-10.97,9.01l-37.82,3.57v29.08s37.82,3.57,37.82,3.57c5.17.54,9.46,4.1,10.88,9.1,1.69,5.8,4.1,11.78,7.14,17.48,2.41,4.55,1.87,10.08-1.34,14.01l-24.09,29.26.27-.09Z"/>
  <path d="M204.57,280.36c-20.96-20.96-20.96-55.04,0-76,20.96-20.96,55.04-20.96,76,0,20.96,20.96,20.96,55.04,0,76-20.96,20.96-55.04,20.96-76,0ZM262.74,222.19c-11.06-11.06-29.17-11.15-40.32,0-11.15,11.15-11.15,29.17,0,40.32s29.17,11.15,40.32,0,11.15-29.17,0-40.32Z"/>
  <path d="M259.61,30.66c-2.77-2.77-4.19-6.87-3.57-11.06,1.16-6.87,7.58-11.51,14.45-10.35l541.05,90.72c6.87,1.16,11.51,7.58,10.44,14.54-1.16,6.87-7.58,11.51-14.45,10.35L266.48,34.14c-2.68-.54-5.08-1.69-6.87-3.48h0Z"/>
  <path d="M325.71,453.77c-1.69-1.69-2.94-3.84-3.39-6.42-1.43-6.78,2.94-13.47,9.9-14.9l491.89-100.45c6.78-1.43,13.56,3.03,14.9,9.9,1.43,6.78-2.94,13.47-9.9,14.9l-491.89,100.45c-4.28.89-8.56-.54-11.42-3.39l-.09-.09Z"/>
</svg>